<svg xmlns="http://www.w3.org/2000/svg" viewBox="0 0 64 64"><rect width="64" height="64" rx="14" fill="#dfe7d0"/><path d="M6 50c10-9 20-12 28-12s18 3 24 8v12H6z" fill="#6f9440"/><g fill="#c9ad83" stroke="#8d7454" stroke-width="1.2"><rect x="14" y="30" width="10" height="6" rx="1.5"/><rect x="25" y="30" width="10" height="6" rx="1.5"/><rect x="36" y="30" width="10" height="6" rx="1.5"/><rect x="19" y="23" width="10" height="6" rx="1.5"/><rect x="30" y="23" width="10" height="6" rx="1.5"/><rect x="14" y="37" width="10" height="6" rx="1.5"/><rect x="36" y="37" width="10" height="6" rx="1.5"/></g><path d="M25 43v-3a5 5 0 0 1 10 0v3z" fill="#7a5a3a"/></svg>
